# xmcd
#
# Track frame offsets:
#   150
#   17895
#   34063
#   52847
#   75301
#   92465
#   113444
#   134775
#   157481
#   177576
#   200377
#   208733
#   226933
#   249889
#   267741
#   289798
#   309379
#   324018
#
# Disc length: 4582 seconds
#
# Revision: 0
# Processed by: cddbd v1.5.2PL0 Copyright (c) Steve Scherf et al.
# Submitted via: GXTranscoder 2.0.1939
#
DISCID=f311e412
DTITLE=John Legend/Mix - Once Again
DYEAR=2007
DGENRE=UnClassifiable
TTITLE0=Save room
TTITLE1=Heaven
TTITLE2=Stereo
TTITLE3=Show me
TTITLE4=Each day gets better
TTITLE5=P.D.A
TTITLE6=Slow dance
TTITLE7=Again
TTITLE8=Maxine
TTITLE9=Where did my baby go
TTITLE10=Maxine's Interlude
TTITLE11=Another again
TTITLE12=Coming Home
TTITLE13=
TTITLE14=--
TTITLE15=sdfng
TTITLE16=sdgtjs
TTITLE17=edtjea
EXTD=
EXTT0=
EXTT1=
EXTT2=
EXTT3=
EXTT4=
EXTT5=
EXTT6=
EXTT7=
EXTT8=
EXTT9=
EXTT10=
EXTT11=
EXTT12=
EXTT13=
EXTT14=
EXTT15=
EXTT16=
EXTT17=
PLAYORDER=
